<mxfile host="app.diagrams.net" modified="2020-10-01T18:37:18.309Z" agent="Mozilla/5.0 (Macintosh; Intel Mac OS X 10_10_1) AppleWebKit/537.36 (KHTML, like Gecko) Chrome/83.0.4103.103 Safari/537.36" etag="1tWZ5XbTJi5a3UygYUL6" version="13.7.7" type="github">
  <diagram id="6piXv_wS_bRQA9CEpT_9" name="Page-1">
    <mxGraphModel dx="1246" dy="579" grid="1" gridSize="10" guides="1" tooltips="1" connect="1" arrows="1" fold="1" page="1" pageScale="1" pageWidth="827" pageHeight="1169" math="0" shadow="0">
      <root>
        <mxCell id="0" />
        <mxCell id="1" parent="0" />
        <mxCell id="qKvw2j5crJrj7szggtQe-11" style="edgeStyle=orthogonalEdgeStyle;rounded=0;orthogonalLoop=1;jettySize=auto;html=1;exitX=0.5;exitY=1;exitDx=0;exitDy=0;" edge="1" parent="1" source="qKvw2j5crJrj7szggtQe-1" target="qKvw2j5crJrj7szggtQe-8">
          <mxGeometry relative="1" as="geometry" />
        </mxCell>
        <mxCell id="qKvw2j5crJrj7szggtQe-1" value="&lt;font style=&quot;font-size: 24px&quot;&gt;1&lt;/font&gt;" style="ellipse;whiteSpace=wrap;html=1;aspect=fixed;" vertex="1" parent="1">
          <mxGeometry x="70" y="30" width="80" height="80" as="geometry" />
        </mxCell>
        <mxCell id="qKvw2j5crJrj7szggtQe-2" value="&lt;span style=&quot;font-size: 24px&quot;&gt;9&lt;/span&gt;" style="ellipse;whiteSpace=wrap;html=1;aspect=fixed;" vertex="1" parent="1">
          <mxGeometry x="620" y="30" width="80" height="80" as="geometry" />
        </mxCell>
        <mxCell id="qKvw2j5crJrj7szggtQe-16" style="edgeStyle=orthogonalEdgeStyle;rounded=0;orthogonalLoop=1;jettySize=auto;html=1;exitX=1;exitY=0.5;exitDx=0;exitDy=0;entryX=0.5;entryY=1;entryDx=0;entryDy=0;" edge="1" parent="1" source="qKvw2j5crJrj7szggtQe-3" target="qKvw2j5crJrj7szggtQe-7">
          <mxGeometry relative="1" as="geometry" />
        </mxCell>
        <mxCell id="qKvw2j5crJrj7szggtQe-3" value="&lt;span style=&quot;font-size: 24px&quot;&gt;4&lt;/span&gt;" style="ellipse;whiteSpace=wrap;html=1;aspect=fixed;" vertex="1" parent="1">
          <mxGeometry x="70" y="440" width="80" height="80" as="geometry" />
        </mxCell>
        <mxCell id="qKvw2j5crJrj7szggtQe-17" style="edgeStyle=orthogonalEdgeStyle;rounded=0;orthogonalLoop=1;jettySize=auto;html=1;exitX=1;exitY=0.5;exitDx=0;exitDy=0;entryX=0.5;entryY=0;entryDx=0;entryDy=0;" edge="1" parent="1" source="qKvw2j5crJrj7szggtQe-4" target="qKvw2j5crJrj7szggtQe-9">
          <mxGeometry relative="1" as="geometry" />
        </mxCell>
        <mxCell id="qKvw2j5crJrj7szggtQe-4" value="&lt;span style=&quot;font-size: 24px&quot;&gt;10&lt;/span&gt;" style="ellipse;whiteSpace=wrap;html=1;aspect=fixed;" vertex="1" parent="1">
          <mxGeometry x="250" y="190" width="80" height="80" as="geometry" />
        </mxCell>
        <mxCell id="qKvw2j5crJrj7szggtQe-21" style="edgeStyle=orthogonalEdgeStyle;rounded=0;orthogonalLoop=1;jettySize=auto;html=1;exitX=1;exitY=0.5;exitDx=0;exitDy=0;entryX=0.5;entryY=1;entryDx=0;entryDy=0;" edge="1" parent="1" source="qKvw2j5crJrj7szggtQe-5" target="qKvw2j5crJrj7szggtQe-10">
          <mxGeometry relative="1" as="geometry">
            <Array as="points">
              <mxPoint x="680" y="442" />
              <mxPoint x="750" y="442" />
            </Array>
          </mxGeometry>
        </mxCell>
        <mxCell id="qKvw2j5crJrj7szggtQe-5" value="&lt;span style=&quot;font-size: 24px&quot;&gt;7&lt;/span&gt;" style="ellipse;whiteSpace=wrap;html=1;aspect=fixed;" vertex="1" parent="1">
          <mxGeometry x="600" y="430" width="80" height="80" as="geometry" />
        </mxCell>
        <mxCell id="qKvw2j5crJrj7szggtQe-14" style="edgeStyle=orthogonalEdgeStyle;rounded=0;orthogonalLoop=1;jettySize=auto;html=1;exitX=0;exitY=1;exitDx=0;exitDy=0;entryX=0.25;entryY=0;entryDx=0;entryDy=0;entryPerimeter=0;" edge="1" parent="1" source="qKvw2j5crJrj7szggtQe-6" target="qKvw2j5crJrj7szggtQe-3">
          <mxGeometry relative="1" as="geometry" />
        </mxCell>
        <mxCell id="qKvw2j5crJrj7szggtQe-15" style="edgeStyle=orthogonalEdgeStyle;rounded=0;orthogonalLoop=1;jettySize=auto;html=1;exitX=1;exitY=0.5;exitDx=0;exitDy=0;entryX=0;entryY=1;entryDx=0;entryDy=0;" edge="1" parent="1" source="qKvw2j5crJrj7szggtQe-6" target="qKvw2j5crJrj7szggtQe-4">
          <mxGeometry relative="1" as="geometry" />
        </mxCell>
        <mxCell id="qKvw2j5crJrj7szggtQe-6" value="&lt;span style=&quot;font-size: 24px&quot;&gt;3&lt;/span&gt;" style="ellipse;whiteSpace=wrap;html=1;aspect=fixed;" vertex="1" parent="1">
          <mxGeometry x="100" y="280" width="80" height="80" as="geometry" />
        </mxCell>
        <mxCell id="qKvw2j5crJrj7szggtQe-18" style="edgeStyle=orthogonalEdgeStyle;rounded=0;orthogonalLoop=1;jettySize=auto;html=1;exitX=0.5;exitY=0;exitDx=0;exitDy=0;" edge="1" parent="1" source="qKvw2j5crJrj7szggtQe-7" target="qKvw2j5crJrj7szggtQe-9">
          <mxGeometry relative="1" as="geometry" />
        </mxCell>
        <mxCell id="qKvw2j5crJrj7szggtQe-7" value="&lt;span style=&quot;font-size: 24px&quot;&gt;5&lt;/span&gt;" style="ellipse;whiteSpace=wrap;html=1;aspect=fixed;" vertex="1" parent="1">
          <mxGeometry x="310" y="360" width="80" height="80" as="geometry" />
        </mxCell>
        <mxCell id="qKvw2j5crJrj7szggtQe-12" style="edgeStyle=orthogonalEdgeStyle;rounded=0;orthogonalLoop=1;jettySize=auto;html=1;exitX=0.5;exitY=1;exitDx=0;exitDy=0;entryX=0.282;entryY=-0.032;entryDx=0;entryDy=0;entryPerimeter=0;" edge="1" parent="1" source="qKvw2j5crJrj7szggtQe-8" target="qKvw2j5crJrj7szggtQe-6">
          <mxGeometry relative="1" as="geometry" />
        </mxCell>
        <mxCell id="qKvw2j5crJrj7szggtQe-13" style="edgeStyle=orthogonalEdgeStyle;rounded=0;orthogonalLoop=1;jettySize=auto;html=1;exitX=1;exitY=0.5;exitDx=0;exitDy=0;entryX=0.25;entryY=0;entryDx=0;entryDy=0;entryPerimeter=0;" edge="1" parent="1" source="qKvw2j5crJrj7szggtQe-8" target="qKvw2j5crJrj7szggtQe-4">
          <mxGeometry relative="1" as="geometry" />
        </mxCell>
        <mxCell id="qKvw2j5crJrj7szggtQe-8" value="&lt;span style=&quot;font-size: 24px&quot;&gt;2&lt;/span&gt;" style="ellipse;whiteSpace=wrap;html=1;aspect=fixed;" vertex="1" parent="1">
          <mxGeometry x="110" y="140" width="80" height="80" as="geometry" />
        </mxCell>
        <mxCell id="qKvw2j5crJrj7szggtQe-19" style="edgeStyle=orthogonalEdgeStyle;rounded=0;orthogonalLoop=1;jettySize=auto;html=1;exitX=0.5;exitY=1;exitDx=0;exitDy=0;entryX=0;entryY=0.5;entryDx=0;entryDy=0;" edge="1" parent="1" source="qKvw2j5crJrj7szggtQe-9" target="qKvw2j5crJrj7szggtQe-5">
          <mxGeometry relative="1" as="geometry" />
        </mxCell>
        <mxCell id="qKvw2j5crJrj7szggtQe-20" style="edgeStyle=orthogonalEdgeStyle;rounded=0;orthogonalLoop=1;jettySize=auto;html=1;exitX=1;exitY=0.5;exitDx=0;exitDy=0;entryX=0.5;entryY=1;entryDx=0;entryDy=0;" edge="1" parent="1" source="qKvw2j5crJrj7szggtQe-9" target="qKvw2j5crJrj7szggtQe-2">
          <mxGeometry relative="1" as="geometry" />
        </mxCell>
        <mxCell id="qKvw2j5crJrj7szggtQe-9" value="&lt;span style=&quot;font-size: 24px&quot;&gt;6&lt;/span&gt;" style="ellipse;whiteSpace=wrap;html=1;aspect=fixed;" vertex="1" parent="1">
          <mxGeometry x="510" y="280" width="80" height="80" as="geometry" />
        </mxCell>
        <mxCell id="qKvw2j5crJrj7szggtQe-22" style="edgeStyle=orthogonalEdgeStyle;rounded=0;orthogonalLoop=1;jettySize=auto;html=1;exitX=0.5;exitY=0;exitDx=0;exitDy=0;entryX=0.5;entryY=0;entryDx=0;entryDy=0;" edge="1" parent="1" source="qKvw2j5crJrj7szggtQe-10" target="qKvw2j5crJrj7szggtQe-2">
          <mxGeometry relative="1" as="geometry" />
        </mxCell>
        <mxCell id="qKvw2j5crJrj7szggtQe-10" value="&lt;span style=&quot;font-size: 24px&quot;&gt;8&lt;/span&gt;" style="ellipse;whiteSpace=wrap;html=1;aspect=fixed;" vertex="1" parent="1">
          <mxGeometry x="710" y="190" width="80" height="80" as="geometry" />
        </mxCell>
        <mxCell id="qKvw2j5crJrj7szggtQe-23" value="&lt;font style=&quot;font-size: 24px&quot;&gt;5&lt;/font&gt;" style="text;html=1;strokeColor=none;fillColor=none;align=center;verticalAlign=middle;whiteSpace=wrap;rounded=0;" vertex="1" parent="1">
          <mxGeometry x="50" y="120" width="40" height="20" as="geometry" />
        </mxCell>
        <mxCell id="qKvw2j5crJrj7szggtQe-24" value="&lt;font style=&quot;font-size: 24px&quot;&gt;7&lt;/font&gt;" style="text;html=1;strokeColor=none;fillColor=none;align=center;verticalAlign=middle;whiteSpace=wrap;rounded=0;" vertex="1" parent="1">
          <mxGeometry x="220" y="140" width="40" height="20" as="geometry" />
        </mxCell>
        <mxCell id="qKvw2j5crJrj7szggtQe-25" value="&lt;font style=&quot;font-size: 24px&quot;&gt;6&lt;/font&gt;" style="text;html=1;strokeColor=none;fillColor=none;align=center;verticalAlign=middle;whiteSpace=wrap;rounded=0;" vertex="1" parent="1">
          <mxGeometry x="80" y="250" width="40" height="20" as="geometry" />
        </mxCell>
        <mxCell id="qKvw2j5crJrj7szggtQe-26" value="&lt;font style=&quot;font-size: 24px&quot;&gt;10&lt;br&gt;&lt;/font&gt;" style="text;html=1;strokeColor=none;fillColor=none;align=center;verticalAlign=middle;whiteSpace=wrap;rounded=0;" vertex="1" parent="1">
          <mxGeometry x="50" y="380" width="40" height="20" as="geometry" />
        </mxCell>
        <mxCell id="qKvw2j5crJrj7szggtQe-27" value="&lt;span style=&quot;font-size: 24px&quot;&gt;8&lt;/span&gt;" style="text;html=1;strokeColor=none;fillColor=none;align=center;verticalAlign=middle;whiteSpace=wrap;rounded=0;" vertex="1" parent="1">
          <mxGeometry x="210" y="320" width="40" height="20" as="geometry" />
        </mxCell>
        <mxCell id="qKvw2j5crJrj7szggtQe-28" value="&lt;font style=&quot;font-size: 24px&quot;&gt;20&lt;br&gt;&lt;/font&gt;" style="text;html=1;strokeColor=none;fillColor=none;align=center;verticalAlign=middle;whiteSpace=wrap;rounded=0;" vertex="1" parent="1">
          <mxGeometry x="440" y="210" width="40" height="20" as="geometry" />
        </mxCell>
        <mxCell id="qKvw2j5crJrj7szggtQe-29" value="&lt;span style=&quot;font-size: 24px&quot;&gt;20&lt;br&gt;&lt;/span&gt;" style="text;html=1;strokeColor=none;fillColor=none;align=center;verticalAlign=middle;whiteSpace=wrap;rounded=0;" vertex="1" parent="1">
          <mxGeometry x="240" y="500" width="40" height="20" as="geometry" />
        </mxCell>
        <mxCell id="qKvw2j5crJrj7szggtQe-30" value="&lt;font style=&quot;font-size: 24px&quot;&gt;15&lt;/font&gt;" style="text;html=1;strokeColor=none;fillColor=none;align=center;verticalAlign=middle;whiteSpace=wrap;rounded=0;" vertex="1" parent="1">
          <mxGeometry x="420" y="330" width="40" height="20" as="geometry" />
        </mxCell>
        <mxCell id="qKvw2j5crJrj7szggtQe-31" value="&lt;font style=&quot;font-size: 24px&quot;&gt;12&lt;br&gt;&lt;/font&gt;" style="text;html=1;strokeColor=none;fillColor=none;align=center;verticalAlign=middle;whiteSpace=wrap;rounded=0;" vertex="1" parent="1">
          <mxGeometry x="500" y="420" width="40" height="20" as="geometry" />
        </mxCell>
        <mxCell id="qKvw2j5crJrj7szggtQe-32" value="&lt;font style=&quot;font-size: 24px&quot;&gt;25&lt;/font&gt;" style="text;html=1;strokeColor=none;fillColor=none;align=center;verticalAlign=middle;whiteSpace=wrap;rounded=0;" vertex="1" parent="1">
          <mxGeometry x="610" y="190" width="40" height="20" as="geometry" />
        </mxCell>
        <mxCell id="qKvw2j5crJrj7szggtQe-33" value="&lt;font style=&quot;font-size: 24px&quot;&gt;18&lt;br&gt;&lt;/font&gt;" style="text;html=1;strokeColor=none;fillColor=none;align=center;verticalAlign=middle;whiteSpace=wrap;rounded=0;" vertex="1" parent="1">
          <mxGeometry x="770" y="390" width="40" height="20" as="geometry" />
        </mxCell>
        <mxCell id="qKvw2j5crJrj7szggtQe-34" value="&lt;font style=&quot;font-size: 24px&quot;&gt;22&lt;/font&gt;" style="text;html=1;strokeColor=none;fillColor=none;align=center;verticalAlign=middle;whiteSpace=wrap;rounded=0;" vertex="1" parent="1">
          <mxGeometry x="770" y="90" width="40" height="20" as="geometry" />
        </mxCell>
      </root>
    </mxGraphModel>
  </diagram>
</mxfile>
